HIERARCHY
ROOT Hips
{
	OFFSET -17.527330 0.493051 -2.130291
	CHANNELS 6 Xposition Yposition Zposition Zrotation Yrotation Xrotation
	JOINT LHipJoint
	{
		OFFSET 7.165796 15.012241 8.802215
		CHANNELS 3 Zrotation Yrotation Xrotation
		JOINT LeftUpLeg
		{
			OFFSET 14.394258 15.819099 3.851548
			CHANNELS 3 Zrotation Yrotation Xrotation
			JOINT LeftLeg
			{
				OFFSET 19.539415 21.688848 21.432104
				CHANNELS 3 Zrotation Yrotation Xrotation
				JOINT LeftFoot
				{
					OFFSET 15.336151 7.591710 18.691847
					CHANNELS 3 Zrotation Yrotation Xrotation
					JOINT LeftToeBase
					{
						OFFSET 19.216602 6.851737 8.567566
						CHANNELS 3 Zrotation Yrotation Xrotation
						End Site
						{
							OFFSET 0.000000 0.000000 0.000000
						}
					}
				}
			}
		}
	}
	JOINT RHipJoint
	{
		OFFSET 11.429838 15.364286 4.984079
		CHANNELS 3 Zrotation Yrotation Xrotation
		JOINT RightUpLeg
		{
			OFFSET 18.497246 16.188143 11.991875
			CHANNELS 3 Zrotation Yrotation Xrotation
			JOINT RightLeg
			{
				OFFSET 4.785039 17.553329 29.028822
				CHANNELS 3 Zrotation Yrotation Xrotation
				JOINT RightFoot
				{
					OFFSET 16.206940 8.166688 19.414497
					CHANNELS 3 Zrotation Yrotation Xrotation
					JOINT RightToeBase
					{
						OFFSET 43.006420 30.649660 0.061265
						CHANNELS 3 Zrotation Yrotation Xrotation
						End Site
						{
							OFFSET 0.000000 0.000000 0.000000
						}
					}
				}
			}
		}
	}
	JOINT LowerBack
	{
		OFFSET 15.329208 17.582581 32.815605
		CHANNELS 3 Zrotation Yrotation Xrotation
		JOINT Spine
		{
			OFFSET 34.122337 39.939648 55.972176
			CHANNELS 3 Zrotation Yrotation Xrotation
			JOINT Spine1
			{
				OFFSET 55.257301 101.975571 46.817669
				CHANNELS 3 Zrotation Yrotation Xrotation
				JOINT Neck
				{
					OFFSET 50.898033 76.396103 35.027592
					CHANNELS 3 Zrotation Yrotation Xrotation
					JOINT Neck1
					{
						OFFSET -5.523933 -80.783165 -78.596130
						CHANNELS 3 Zrotation Yrotation Xrotation
						JOINT Head
						{
							OFFSET 11.544554 33.455334 42.023296
							CHANNELS 3 Zrotation Yrotation Xrotation
							End Site
							{
								OFFSET 0.000000 0.000000 0.000000
							}
						}
					}
				}
				JOINT LeftShoulder
				{
					OFFSET 47.782925 27.063990 29.202358
					CHANNELS 3 Zrotation Yrotation Xrotation
					JOINT LeftArm
					{
						OFFSET 31.782480 18.776600 5.819080
						CHANNELS 3 Zrotation Yrotation Xrotation
						JOINT LeftForeArm
						{
							OFFSET 27.930096 51.770950 66.547546
							CHANNELS 3 Zrotation Yrotation Xrotation
							JOINT LeftHand
							{
								OFFSET 87.604454 50.549202 71.252350
								CHANNELS 3 Zrotation Yrotation Xrotation
								JOINT LeftFingerBase
								{
									OFFSET 89.836304 86.547897 87.954880
									CHANNELS 3 Zrotation Yrotation Xrotation
									JOINT LeftHandIndex1
									{
										OFFSET 138.751419 106.016083 85.878845
										CHANNELS 3 Zrotation Yrotation Xrotation
										End Site
										{
											OFFSET 0.000000 0.000000 0.000000
										}
									}
								}
								JOINT LThumb
								{
									OFFSET 70.200554 64.571480 56.025784
									CHANNELS 3 Zrotation Yrotation Xrotation
									End Site
									{
										OFFSET 0.000000 0.000000 0.000000
									}
								}
							}
						}
					}
				}
				JOINT RightShoulder
				{
					OFFSET 43.349159 58.391788 78.662491
					CHANNELS 3 Zrotation Yrotation Xrotation
					JOINT RightArm
					{
						OFFSET 45.906864 28.827124 45.382893
						CHANNELS 3 Zrotation Yrotation Xrotation
						JOINT RightForeArm
						{
							OFFSET 101.851685 127.592659 93.627930
							CHANNELS 3 Zrotation Yrotation Xrotation
							JOINT RightHand
							{
								OFFSET 115.004257 94.488968 120.451447
								CHANNELS 3 Zrotation Yrotation Xrotation
								JOINT RightFingerBase
								{
									OFFSET 265.581360 128.539505 240.026306
									CHANNELS 3 Zrotation Yrotation Xrotation
									JOINT RightHandIndex1
									{
										OFFSET 9.347649 345.942108 161.700699
										CHANNELS 3 Zrotation Yrotation Xrotation
										End Site
										{
											OFFSET 0.000000 0.000000 0.000000
										}
									}
								}
								JOINT RThumb
								{
									OFFSET 508.829712 648.384949 2166.185303
									CHANNELS 3 Zrotation Yrotation Xrotation
									End Site
									{
										OFFSET 962.334839 681.987549 -228.274948
									}
								}
							}
						}
					}
				}
			}
		}
	}
}
MOTION
Frames: 4
Frame Time: 0.008333
3.239119 17.020662 13.203703 -11.342390 -16.877893 10.016461 9.614736 0.849787 3.000164 -24.147446 -1.116225 -33.386101 -3.754479 3.168415 23.498533 6.394525 1.007368 -0.170397 0.753932 -1.719087 -13.036964 -13.167982 -7.802581 -2.146535 -12.894461 14.611086 -14.446700 3.604437 11.631127 86.795334 16.016924 60.055504 44.768108 0.173733 -2.597310 -47.411156 18.428772 8.402975 50.961685 -0.083920 -47.536476 13.809736 15.882651 20.722450 -21.555555 -143.285568 -42.957088 -79.086380 -3.586694 -14.236554 14.951852 4.111984 2.835763 31.650368 20.308121 6.454493 8.089172 -91.163422 -51.707916 -215.026855 -284.465912 7.413147 -3.017736 16.218508 19.438345 353.423798 157.541412 55.852745 192.385086 -7.125000 0.000000 0.000000 -399.077362 -527.656006 -823.204712 -56.157681 -0.750328 10.811161 247.639404 93.613045 100.828369 105.618843 -251.111328 -15.986860 -37.356647 -103.750023 -1576.715088 -6113.450195 -1845.457642 -230.837982 7.125000 0.000000 0.000000 -13381.416016 -543.214661 -46426.886719
7.137737 18.658384 83.971191 -6.705264 -13.038798 28.395340 16.702744 11.494257 29.015192 41.045265 66.509888 33.841190 -3.174340 1.701623 7.182177 11.243641 47.045830 60.556671 6.337374 29.889219 92.072067 9.585220 0.638278 2.824874 28.162457 50.472652 55.352116 16.286701 28.914494 77.743568 8.733955 43.079849 77.806694 9.357005 56.001717 145.348969 62.751686 38.392769 118.184898 23.247925 35.485664 143.656387 146.828644 144.299149 285.388123 206.796600 181.932373 251.665405 106.996758 180.893707 259.092407 79.869171 47.727684 81.066360 66.185616 49.177422 23.711023 54.920456 284.279816 512.171509 263.448700 447.477203 550.359619 46.814342 77.509453 1398.592163 673.814331 1551.194214 1487.627075 -7.125000 0.000000 0.000000 2207.344238 1344.526978 1697.281616 185.974945 115.861542 90.211464 891.199219 991.987305 2983.101318 1864.122314 1264.214233 1154.823608 94.126167 65.282959 910.985352 1900.516479 3622.117432 5888.744629 7.125000 0.000000 0.000000 39214.531250 20262.119141 60934.945312
9.256775 20.605448 191.560684 33.332287 60.167286 85.702370 81.039322 33.862755 47.017136 79.168159 95.677017 159.033920 41.453846 61.012794 197.516617 37.312649 153.898087 171.474869 16.801550 63.773273 226.468643 65.274300 24.703932 41.741051 164.722610 162.957413 248.294006 65.609917 90.339867 279.167908 84.004944 233.710693 402.618408 38.221916 169.754440 465.039581 114.516449 78.436554 177.990524 58.967087 120.673210 177.612534 133.835587 154.082825 302.335388 376.241669 343.789673 497.059235 218.115829 362.929779 486.318970 179.892120 111.768402 213.233017 197.960464 151.519424 57.931770 250.748093 647.251221 1185.088867 876.538086 790.135254 918.762939 69.651428 137.490356 2437.671631 1299.162109 2454.898682 2021.057739 -7.125000 0.000000 0.000000 2526.048340 2084.785400 2395.023193 295.793427 162.886154 100.105148 983.155396 1158.201416 2522.574707 1781.441895 1139.649902 1637.572876 190.137955 317.659729 3827.646240 19276.677734 11341.001953 22630.019531 7.125000 0.000000 0.000000 32855.003906 1609.484497 64758.839844
5.896265 18.317459 66.043037 13.958621 29.482550 51.090908 53.659306 18.916426 32.898106 61.528877 51.828568 41.078655 9.252544 36.558983 129.610931 22.766665 102.804657 95.147331 10.053177 30.558094 121.150948 33.349899 10.802083 30.966450 141.160461 113.866173 137.765549 42.824902 59.678040 211.491257 77.981750 188.556320 340.899231 23.297659 115.050812 269.619812 61.433411 39.309547 110.707764 29.306194 52.386986 59.820610 38.604786 93.031601 136.259064 256.140686 249.288605 325.727814 151.022751 208.760986 337.535553 129.935394 77.396149 147.428101 156.475189 107.921761 37.585526 73.445419 327.786987 407.483734 324.152802 341.278656 431.983459 41.843517 94.561584 1017.138977 546.158508 812.600525 819.070007 -7.125000 0.000000 0.000000 1370.973267 1482.691772 2109.137207 280.293884 132.527390 64.194336 836.769531 1134.944092 2626.763916 1074.033813 164.043793 217.322769 20.092482 145.884613 2343.385254 11007.545898 4233.407227 14490.081055 7.125000 0.000000 0.000000 -14373.869141 34597.285156 138672.203125
